<svg id="dekanova" xmlns="http://www.w3.org/2000/svg" viewBox="0 0 761.6 959.57"><defs><style>.cls-1{fill:#fff;}</style></defs><path class="cls-1" d="M844.34,335.07l-97.25,93.67a1.67,1.67,0,0,0-.31,2,232.72,232.72,0,0,1,27.16,104c3.14,133.75-105.77,242.67-239.53,239.53a232.85,232.85,0,0,1-104-27.17,1.65,1.65,0,0,0-1.95.29l-268.7,269.53a1.66,1.66,0,0,0,2.12,2.55c45.84-31.6,178.4-109,378.08-110.1l.1,0c203.79,0,369-165.2,369-369,0-76.8-22-146-62.13-205A1.68,1.68,0,0,0,844.34,335.07Z" transform="translate(-159.2 -60.22)"/><path class="cls-1" d="M918.17,60.53c-45.84,31.6-178.4,109-378.08,110.1l-.1,0c-203.79,0-369,165.2-369,369,0,76.8,22,146,62.13,205a1.68,1.68,0,0,0,2.54.26l97.25-93.67a1.67,1.67,0,0,0,.31-2,232.72,232.72,0,0,1-27.16-104c-3.14-133.75,105.77-242.67,239.53-239.53a232.85,232.85,0,0,1,104,27.17,1.65,1.65,0,0,0,2-.29L920.29,63.08A1.66,1.66,0,0,0,918.17,60.53Z" transform="translate(-159.2 -60.22)"/></svg>